HIERARCHY
ROOT Hips
{
	OFFSET 0.000000 0.000000 0.000000
	CHANNELS 6 Xposition Yposition Zposition Zrotation Yrotation Xrotation 
	JOINT LHipJoint
	{
		OFFSET 0.000000 0.000000 0.000000
		CHANNELS 3 Zrotation Yrotation Xrotation
		JOINT LeftUpLeg
		{
			OFFSET 1.363060 -1.794630 0.839290
			CHANNELS 3 Zrotation Yrotation Xrotation
			JOINT LeftLeg
			{
				OFFSET 2.448110 -6.726130 0.000000
				CHANNELS 3 Zrotation Yrotation Xrotation
				JOINT LeftFoot
				{
					OFFSET 2.562200 -7.039590 0.000000
					CHANNELS 3 Zrotation Yrotation Xrotation
					JOINT LeftToeBase
					{
						OFFSET 0.157640 -0.433110 2.322550
						CHANNELS 3 Zrotation Yrotation Xrotation
						End Site
						{
							OFFSET 0.000000 0.000000 0.000000
						}
					}
				}
			}
		}
	}
	JOINT RHipJoint
	{
		OFFSET 0.000000 0.000000 0.000000
		CHANNELS 3 Zrotation Yrotation Xrotation
		JOINT RightUpLeg
		{
			OFFSET -1.305520 -1.794630 0.839290
			CHANNELS 3 Zrotation Yrotation Xrotation
			JOINT RightLeg
			{
				OFFSET -2.542530 -6.985550 0.000000
				CHANNELS 3 Zrotation Yrotation Xrotation
				JOINT RightFoot
				{
					OFFSET -2.568260 -7.056230 0.000000
					CHANNELS 3 Zrotation Yrotation Xrotation
					JOINT RightToeBase
					{
						OFFSET -0.164730 -0.452590 2.363150
						CHANNELS 3 Zrotation Yrotation Xrotation
						End Site
						{
							OFFSET 0.000000 0.000000 0.000000
						}
					}
				}
			}
		}
	}
}
MOTION
Frames: 25
Frame Time: 0.008333
10.010262 17.076088 2.265668 -3.382461 -82.879552 9.867982 -10.506326 1.179536 2.973981 -8.840714 -3.388520 -27.389641 -1.180036 1.100889 30.382088 1.261516 7.133336 -4.419586 0.458200 0.000000 -34.791400 9.789346 -0.662544 0.967005 5.631402 -4.735482 -29.939264 1.079142 -1.980628 30.877423 -0.535437 -2.437571 5.283474 -0.893300 0.000000 -73.366000
9.909334 16.783861 2.234149 -2.871665 -83.032012 9.670201 -10.417764 0.957562 2.844539 -9.002292 -4.173920 -29.408956 -1.229465 1.353544 35.775668 1.593961 8.004109 -10.682998 -0.459400 -0.000000 -29.099500 9.733420 -0.369508 1.079702 5.705737 -3.182437 -32.270768 0.886098 -2.233628 36.047917 -0.937121 -4.182310 0.105564 -0.902100 0.000001 -70.396099
9.809613 16.495545 2.195152 -1.356955 -83.038494 8.460308 -10.342883 0.781948 2.705197 -9.233712 -4.929746 -31.445153 -1.274666 1.666467 41.195914 1.911173 8.626725 -16.309271 -1.467000 -0.000001 -24.641100 9.751695 -0.048681 1.149650 5.558835 -1.888912 -34.611145 0.683123 -2.517500 41.514643 -1.345480 -5.658992 -5.027872 -0.559900 0.000000 -67.205001
9.710373 16.218046 2.149977 0.971306 -82.902325 6.402236 -10.283645 0.662960 2.557727 -9.544330 -5.598631 -33.386710 -1.299153 2.016738 46.395587 2.185483 9.032454 -21.110613 -2.420200 -0.000000 -21.782800 9.842334 0.277578 1.158899 5.255029 -0.968400 -36.816740 0.483848 -2.816260 46.941343 -1.718595 -6.854106 -9.829300 0.020000 0.000001 -64.143400
9.611063 15.957984 2.100796 3.696863 -82.641000 3.907451 -10.240307 0.598478 2.408443 -9.914684 -6.140811 -35.173998 -1.293602 2.378971 51.202164 2.400534 9.240653 -25.032540 -3.223800 0.000000 -20.460400 9.989160 0.588251 1.106532 4.875701 -0.449671 -38.797075 0.296725 -3.114917 52.060164 -2.030418 -7.775568 -14.113379 0.710000 0.000000 -61.547000
9.511334 15.721076 2.050046 6.399617 -82.285446 1.403918 -10.211185 0.578541 2.264583 -10.312316 -6.536065 -36.777780 -1.256455 2.729845 55.502879 2.552344 9.278897 -28.105533 -3.832900 -0.000000 -20.382900 10.170032 0.867044 1.002665 4.492756 -0.300627 -40.511052 0.126464 -3.401701 56.690085 -2.270783 -8.435133 -17.788962 1.401000 0.000000 -59.631900
9.411212 15.511719 2.000066 8.780883 -81.877560 -0.800563 -10.194535 0.590079 2.131717 -10.701353 -6.776974 -38.184138 -1.192585 3.050890 59.233412 2.646518 9.188460 -30.412863 -4.246500 0.000000 -21.168201 10.362040 1.102424 0.863139 4.161096 -0.451993 -41.950284 -0.023366 -3.667644 60.725837 -2.440548 -8.846667 -20.838056 2.015500 -0.000000 -58.449900
9.310661 15.332660 1.952643 10.719961 -81.464055 -2.574418 -10.188160 0.621125 2.013335 -11.053519 -6.868977 -39.383975 -1.111477 3.329274 62.365045 2.695719 9.024324 -32.071963 -4.497000 0.000000 -22.415600 10.545964 1.287978 0.705490 3.912733 -0.818859 -43.126428 -0.149115 -3.906004 64.121450 -2.546869 -9.028465 -23.296524 2.509600 -0.000000 -57.900699
9.209959 15.185217 1.909073 12.208677 -81.091335 -3.906109 -10.190347 0.662280 1.909882 -11.347643 -6.823330 -40.364488 -1.025163 3.557594 64.894491 2.715966 8.844734 -33.220415 -4.634600 -0.000000 -23.747200 10.707465 1.420812 0.545855 3.764258 -1.312191 -44.052669 -0.246951 -4.111460 66.869313 -2.600506 -9.009483 -25.230826 2.868400 -0.000000 -57.793900
9.109256 15.069287 1.870055 13.302870 -80.800197 -4.848662 -10.199586 0.707069 1.820095 -11.570152 -6.656663 -41.114768 -0.945795 3.733234 66.840834 2.723728 8.701246 -34.002256 -4.713000 -0.000000 -24.850200 10.837531 1.501102 0.398693 3.719792 -1.845668 -44.744017 -0.313911 -4.280219 68.990505 -2.614332 -8.830820 -26.722913 3.100000 0.000000 -57.918400
9.008753 14.983720 1.835795 14.064148 -80.621785 -5.466155 -10.215423 0.751015 1.741589 -11.710551 -6.388422 -41.623976 -0.883550 3.857048 68.239338 2.733094 8.631686 -34.551535 -4.778599 -0.000000 -25.522500 10.931384 1.530597 0.275535 3.777119 -2.341026 -45.209693 -0.348614 -4.409758 70.523029 -2.602382 -8.545580 -27.856804 3.228200 -0.000000 -58.094300
8.908429 14.926466 1.805978 14.560433 -80.576680 -5.825791 -10.237397 0.791337 1.672782 -11.763411 -6.043645 -41.891109 -0.844868 3.932528 69.140564 2.754237 8.657984 -34.977299 -4.864800 0.000000 -25.693699 10.988274 1.513056 0.185745 3.926641 -2.731379 -45.459065 -0.352065 -4.499157 71.519321 -2.578479 -8.211685 -28.712682 3.284500 -0.000001 -58.193700
8.808200 14.894771 1.779874 14.846604 -80.673192 -5.980627 -10.265307 0.825730 1.612176 -11.727343 -5.649161 -41.928768 -0.831501 3.965164 69.608269 2.792431 8.786948 -35.352520 -4.990400 -0.000000 -25.423700 11.009883 1.454461 0.135852 4.154677 -2.963114 -45.505518 -0.327772 -4.549366 72.042603 -2.555373 -7.886884 -29.361805 3.302200 0.000000 -58.143800
8.708031 14.885715 1.756420 14.973436 -80.907668 -5.982132 -10.298511 0.852969 1.559636 -11.607274 -5.235144 -41.757651 -0.840403 3.961307 69.712757 2.848441 9.017214 -35.706305 -5.161300 0.000000 -24.881500 11.000232 1.362103 0.129515 4.442431 -3.000447 -45.360287 -0.280990 -4.562694 72.158737 -2.543366 -7.621010 -29.862733 3.310599 -0.000000 -57.916600
8.607608 14.896304 1.734316 14.996858 -81.265369 -5.881333 -10.335720 0.873085 1.515985 -11.415213 -4.831532 -41.410940 -0.864401 3.928086 69.530609 2.919127 9.341912 -36.026318 -5.372600 0.000000 -24.299300 10.964804 1.244597 0.167843 4.767503 -2.826554 -45.039627 -0.218152 -4.542969 71.935359 -2.549602 -7.450529 -30.260098 3.332300 -0.000000 -57.519499
8.506655 14.923564 1.712201 14.972535 -81.723941 -5.729974 -10.375290 0.886924 1.481747 -11.168424 -4.463466 -40.932641 -0.893492 3.873385 69.141838 2.998363 9.751799 -36.266707 -5.609900 0.000000 -23.921000 10.909617 1.111458 0.248672 5.107694 -2.443647 -44.563780 -0.145923 -4.495081 71.437761 -2.577657 -7.395974 -30.583306 3.380701 -0.000000 -56.982800
8.405129 14.965035 1.688752 14.980491 -82.253130 -5.608078 -10.414441 0.897317 1.458629 -10.892162 -4.154485 -40.367184 -0.916433 3.804825 68.621573 3.078768 10.241006 -36.356442 -5.853500 -0.000000 -23.961600 10.841920 0.972123 0.367123 5.438226 -1.876233 -43.952677 -0.070173 -4.424165 70.722218 -2.626974 -7.459038 -30.845740 3.459800 0.000000 -56.354200
8.302880 15.018587 1.662826 15.105633 -82.821239 -5.598903 -10.450599 0.907855 1.447589 -10.611008 -3.918182 -39.764134 -0.922286 3.730160 68.041172 3.152559 10.803356 -36.215612 -6.078400 0.000000 -24.572299 10.768433 0.834959 0.515727 5.740437 -1.164067 -43.228078 0.004653 -4.335127 69.835523 -2.693872 -7.625946 -31.048632 3.565200 0.000000 -55.688300
8.200005 15.082494 1.633735 15.431689 -83.397581 -5.787963 -10.481606 0.922499 1.448982 -10.347106 -3.759322 -39.169787 -0.901618 3.656525 67.462406 3.212862 11.433092 -35.765485 -6.256100 0.000000 -25.828800 10.695142 0.706575 0.685069 6.002159 -0.358165 -42.409621 0.076025 -4.231995 68.811319 -2.772137 -7.870144 -31.184088 3.686000 -0.000001 -55.039400
8.096592 15.155386 1.601154 16.032818 -83.955604 -6.250968 -10.505721 0.944854 1.462500 -10.116316 -3.674157 -38.626003 -0.847456 3.590006 66.934842 3.255120 12.124537 -34.940225 -6.356700 0.000000 -27.725100 10.627042 0.591557 0.864856 6.218924 0.486287 -41.513483 0.143250 -4.117517 67.669653 -2.854153 -8.157185 -31.239056 3.807000 -0.000000 -54.452800
7.993002 15.236167 1.565219 16.938076 -84.474854 -7.022633 -10.522302 0.976937 1.486916 -9.925803 -3.650776 -38.165653 -0.755842 3.535062 66.493762 3.277894 12.871151 -33.695910 -6.351700 0.000000 -30.166000 10.567347 0.491886 1.044740 6.395169 1.316091 -40.549670 0.207294 -3.993227 66.418081 -2.932314 -8.450959 -31.200639 3.912300 -0.000001 -53.957199
7.889341 15.323849 1.526513 18.126087 -84.942451 -8.082945 -10.531368 1.018811 1.519890 -9.774267 -3.672986 -37.810312 -0.626657 3.494128 66.159291 3.283692 13.665113 -32.022481 -6.217600 -0.000001 -32.956400 10.517442 0.407392 1.215164 6.542041 2.086682 -39.523512 0.270299 -3.859709 65.054006 -3.000137 -8.718243 -31.060174 3.987800 -0.000000 -53.561801
7.786081 15.417435 1.485890 19.502504 -85.351808 -9.344339 -10.533795 1.067682 1.558758 -9.654576 -3.725059 -37.568798 -0.463767 3.467337 65.936361 3.278384 14.496498 -29.947969 -5.940000 -0.000000 -35.800400 10.476614 0.335886 1.368040 6.673973 2.764186 -38.434820 0.334893 -3.717130 63.568615 -3.052889 -8.933093 -30.813980 4.023300 0.000001 -53.257000
7.683188 15.515757 1.444418 20.912471 -85.701953 -10.651523 -10.531698 1.118881 1.601921 -9.554675 -3.793917 -37.440490 -0.275099 3.452713 65.819424 3.269896 15.350749 -27.544703 -5.518100 0.000000 -38.330900 10.441611 0.272826 1.498731 6.807627 3.328579 -37.283599 0.403668 -3.565510 61.951947 -3.088424 -9.079731 -30.466521 4.014800 -0.000000 -53.017500
7.580989 15.617598 1.403165 22.187247 -85.997478 -11.839805 -10.527262 1.166534 1.646507 -9.463934 -3.870549 -37.411497 -0.072362 3.447090 65.790034 3.265979 16.208598 -24.923858 -4.967400 0.000001 -40.172000 10.407935 0.213931 1.603331 6.955700 3.771791 -36.066664 0.478687 -3.405144 60.195738 -3.106473 -9.151892 -30.027512 3.962900 -0.000000 -52.814600
